<svg width="40" height="40" viewBox="0 0 40 40" fill="none" xmlns="http://www.w3.org/2000/svg">
<path d="M20 10V36.6667M20 10H14.1071C13.2389 10 12.4062 9.64885 11.7922 9.02373C11.1782 8.39861 10.8333 7.55076 10.8333 6.66671C10.8333 5.78265 11.1782 4.93481 11.7922 4.30968C12.4062 3.68456 13.2389 3.33337 14.1071 3.33337C18.6905 3.33337 20 10 20 10ZM20 10H25.8929C26.7611 10 27.5938 9.64885 28.2078 9.02373C28.8217 8.39861 29.1667 7.55076 29.1667 6.66671C29.1667 5.78265 28.8217 4.93481 28.2078 4.30968C27.5938 3.68456 26.7611 3.33337 25.8929 3.33337C21.3095 3.33337 20 10 20 10ZM33.3333 18.3334V31.3334C33.3333 33.2002 33.3333 34.1336 32.97 34.8467C32.6504 35.4739 32.1405 35.9838 31.5133 36.3034C30.8003 36.6667 29.8668 36.6667 28 36.6667L12 36.6667C10.1332 36.6667 9.19973 36.6667 8.48669 36.3034C7.85949 35.9838 7.34955 35.4739 7.02997 34.8467C6.66666 34.1336 6.66666 33.2002 6.66666 31.3334V18.3334M3.33333 12.6667L3.33333 15.6667C3.33333 16.6001 3.33333 17.0668 3.51498 17.4234C3.67477 17.737 3.92974 17.9919 4.24334 18.1517C4.59986 18.3334 5.06657 18.3334 6 18.3334L34 18.3334C34.9334 18.3334 35.4001 18.3334 35.7566 18.1517C36.0703 17.9919 36.3252 17.737 36.485 17.4234C36.6667 17.0668 36.6667 16.6001 36.6667 15.6667V12.6667C36.6667 11.7333 36.6667 11.2666 36.485 10.9101C36.3252 10.5965 36.0703 10.3415 35.7566 10.1817C35.4001 10 34.9334 10 34 10L6 10C5.06657 10 4.59986 10 4.24334 10.1817C3.92974 10.3415 3.67477 10.5965 3.51498 10.9101C3.33333 11.2666 3.33333 11.7333 3.33333 12.6667Z" stroke="#43A548" stroke-width="3" stroke-linecap="round" stroke-linejoin="round"/>
</svg>
